<svg width='80px' height='80px' id="Capa_1" data-name="Capa 1" xmlns="http://www.w3.org/2000/svg" viewBox="0 0 152.31 153.45"><defs><style>.cls-1{fill:#ff8232;}.cls-2{fill:red;}</style></defs><title>camurtLab Logo</title><g id="Marco"><path class="cls-1" d="M10.12,46.44c0-2.35-.07-4.71,0-7.06a2.48,2.48,0,0,1,.94-1.77C18.74,33,26.42,28.55,34.07,24q13.36-7.89,26.7-15.82c4.53-2.68,9.05-5.38,13.62-8a2.15,2.15,0,0,1,1.83,0q16.22,9.47,32.38,19l25,14.73c1.84,1.08,3.7,2.13,5.5,3.27.39.25.56.84.83,1.27-.55,0-1.23.24-1.65,0-3.34-1.92-6.63-3.94-10-5.9L103.93,18.25C98.14,14.83,92.38,11.38,86.59,8c-3.44-2-6.88-4.05-10.38-6a2.32,2.32,0,0,0-1.95.12C67.6,6,61,9.95,54.32,13.86q-20.42,12-40.86,24a3.43,3.43,0,0,0-2,3.51c.12,4,0,8,0,12.05a3.21,3.21,0,0,1-.08,1.09c-.09.23-.57.56-.63.51-.27-.22-.64-.54-.66-.84-.08-1.47-.05-3-.06-4.43,0-1.11,0-2.22,0-3.32Z"/><path class="cls-1" d="M140.72,106.43q0-1.66,0-3.32c0-1.57,0-3.14,0-4.71,0-.32-.48-.61-.73-.91a1.88,1.88,0,0,0-.67,2c0,4.52,0,9,0,13.57a2.2,2.2,0,0,1-1.26,2.19c-3.69,2.13-7.33,4.34-11,6.5q-9,5.28-18,10.53c-5.68,3.32-11.37,6.62-17,10q-7.74,4.56-15.44,9.19a2.11,2.11,0,0,1-2.5,0c-1.76-1.13-3.57-2.16-5.37-3.22q-13.14-7.73-26.28-15.45c-10-5.88-19.91-11.79-29.88-17.66-.4-.24-1-.09-1.55-.11.29.43.49,1,.89,1.27q15.61,9.29,31.27,18.52,15.4,9.11,30.78,18.26a2.39,2.39,0,0,0,2.83,0c6.46-3.87,13-7.69,19.43-11.52l25.05-14.83c6-3.53,11.94-7.07,18-10.54a2.68,2.68,0,0,0,1.53-2.75C140.66,111,140.72,108.73,140.72,106.43Z"/></g><g id="Letras"><path d="M131.77,53.27a15.94,15.94,0,0,1,2.08-1.86,5,5,0,0,1,1.31-.53l.2.37a50.7,50.7,0,0,1-2.06,4.65c1.33,0,2.66,0,4,0,.51-2,1-3.94,1.51-5.92a2.41,2.41,0,0,0,0-1.52c-.2-.32-.92-.54-1.17-.35a3.38,3.38,0,0,1-3.17.36,3,3,0,0,0-1.33.22c-1.95.46-4.89,3.65-6.63,7.32l3.35-.08A14.09,14.09,0,0,1,131.77,53.27Z"/><path d="M136.37,60.73a3.89,3.89,0,0,1,0-1.37q.43-1.72.88-3.43c-1.33,0-2.66,0-4,0a27.2,27.2,0,0,1-2.22,3.66c-.63.86-1.25,1.71-1.94,2.49a3.92,3.92,0,0,1-1.13.65A5.74,5.74,0,0,1,127.9,61,20.25,20.25,0,0,1,129.84,56l-3.35.08a13.68,13.68,0,0,0-1.43,5.37c-.05,2.29-.14,2.45-2,2.39l-2.23-.09a25.41,25.41,0,0,0,.17,3.74,6.7,6.7,0,0,0,4.59-1.54,1,1,0,0,1,1,.06,2.33,2.33,0,0,0,3-.32,33.33,33.33,0,0,0,2.72-2.89,22.08,22.08,0,0,0,1.3-1.87,4.7,4.7,0,0,1,.27.78c.4,3.44,2.41,3.89,4.05,2.93V61.25l-.27.24C137,62.06,136.49,61.68,136.37,60.73Z"/><path d="M147.5,55.61a29.76,29.76,0,0,1-3.4,4.54,1.31,1.31,0,0,1-1.31.34c-.25-.11-.28-.94-.48-1.72l1.07-3.9a7.79,7.79,0,0,1-2.48-1c-.3,1.24-.57,2.49-.81,3.76a6.3,6.3,0,0,1-2.17,3.61v3.35a4.42,4.42,0,0,0,1-.82,8.22,8.22,0,0,0,.66-.75c.41-.57.83-.59,1.26-.06,1.06,1.3,2.2,1.11,3.43.4a14.69,14.69,0,0,0,5.23-6c.4-.73.79-1.47,1.15-2.22-1,0-2,0-3,0Z"/><path d="M148.5,45.24c-.72.2-1.41.52-2.32.86.15-.59.22-1,.34-1.32.93-2.62,1.87-5.25,2.83-7.86.63-1.72,1.33-3.41,1.94-5.15a5.52,5.52,0,0,0,.1-1.43c-.43,0-.94-.24-1.26,0a4.37,4.37,0,0,0-1.65,1.7,144,144,0,0,0-7.6,21.86,7.79,7.79,0,0,0,2.48,1c.38-1.37.77-2.76,1.16-4.15a.86.86,0,0,1,.39-.45,28.13,28.13,0,0,1,2.67-1.42c.45-.19,1.15-.36,1.43-.08a2.23,2.23,0,0,1,.34,1.73,28.91,28.91,0,0,1-1.67,4.71c1,0,2,0,3,0a15.93,15.93,0,0,0,1.65-6C152.47,46,151.06,44.53,148.5,45.24Z"/><path d="M120.8,63.7c-2.84-.14-5.67-.38-8.51-.55-1-.06-1-.63-.59-1.55,2-4.77,3.85-9.62,6-14.3a50.66,50.66,0,0,1,4-6.7,9.71,9.71,0,0,1,2-1.78l.38.57a15.29,15.29,0,0,1-4.16,5.41c-.85.63-.78,1.23-.4,2,.58,1.21,1.7,1.4,2.84.36a17.41,17.41,0,0,0,4.66-6.67,7.17,7.17,0,0,0,.37-1.45c.37-2.37-.68-3.92-2.63-3.81s-3.73,1.33-5.2,3a37.57,37.57,0,0,0-6,10.3q-2.54,6-4.92,12.16c-.51,1.31-1.18,1.8-2.24,1.79a25.37,25.37,0,0,0,1.8,5l.16-.18a2.43,2.43,0,0,1,2.53-.94,84.87,84.87,0,0,0,8.89,1c.43,0,.86,0,1.3,0A25.41,25.41,0,0,1,120.8,63.7Z"/><path d="M100.72,66.85a3.92,3.92,0,0,1,.74-.53c-.31-1-.58-2.1-.82-3.16a9.84,9.84,0,0,0-1.34.66,3.83,3.83,0,0,0-2,4.54,3,3,0,0,0,3.31,2.6,10.76,10.76,0,0,0,2.52-.34,23.75,23.75,0,0,1-1.37-3.31A2.23,2.23,0,0,1,100.72,66.85Z"/><path d="M21.72,79.74c-.29.37-.8.48-1.21.71a6,6,0,0,1-.09-1.69,20.38,20.38,0,0,1,2.12-5.39,9.67,9.67,0,0,0-2.48-1.53l-.24.39a14.06,14.06,0,0,0-2.21,8.37c.2,2.77,2.25,4.31,4.21,2.95a19.21,19.21,0,0,0,3-3.07,6.86,6.86,0,0,0,.63-.86c-.45-1-1-1.88-1.5-2.81C23.26,77.82,22.48,78.77,21.72,79.74Z"/><path d="M28.43,66.51l-.17,0a11.23,11.23,0,0,0-3.38.32c-2.09.89-3.54,2.87-4.82,5a9.67,9.67,0,0,1,2.48,1.53,14.63,14.63,0,0,1,3-3.65,5.88,5.88,0,0,1,1.29-.85,4.17,4.17,0,0,1,1-.23L28,69,24.86,75.4c-.28.48-.58.95-.89,1.4.48.93,1,1.84,1.5,2.81.23-.36.46-.74.74-1.17l.06.27a7.29,7.29,0,0,1,2.79-2.44c.52-2.07,1.08-4.12,1.61-6.18A17.29,17.29,0,0,0,28.43,66.51Z"/><path d="M80.17,57.24A2.08,2.08,0,0,0,78,57a19.86,19.86,0,0,0-3.16,2.83,12.68,12.68,0,0,0-1.09,1.42A2.3,2.3,0,0,1,73.83,60c.1-.39.25-.78.31-1.18.2-1.16-.16-1.56-1.1-1.25a3.71,3.71,0,0,0-2.18,2.61c-.77,2.26-1.46,4.56-2.34,6.75a43.42,43.42,0,0,1-2.71,5.53c-.34.58-1.17.74-1.78,1.09a7.63,7.63,0,0,1-.22-2.2c.48-2.32,1.06-4.61,1.67-6.89.36-1.36.88-2.65,1.27-4a1.8,1.8,0,0,0-.08-1.26c-.18-.24-.69-.25-1-.16a3.14,3.14,0,0,0-2,2.29,47.62,47.62,0,0,1-6.23,11.8,7.21,7.21,0,0,1-1.06,1L56.07,74a26.55,26.55,0,0,1,.48-2.72c.8-2.83,1.65-5.65,2.5-8.46.24-.8.21-1.48-.45-1.9s-1.14.08-1.51.73a3.29,3.29,0,0,0-.29.59c-.93,2.78-2,5.51-2.73,8.35a10,10,0,0,1-2.95,4.93,1.59,1.59,0,0,1-1.52.33c-.25-.11-.42-1.16-.3-1.68a31.75,31.75,0,0,1,1.17-3.59c.87-2.41,1.82-4.77,2.63-7.21.61-1.84-.24-3-1.84-2.63a5.55,5.55,0,0,0-1.28.53,11.36,11.36,0,0,0-4.05,4.3c-.37.59-.77,1.15-1.15,1.73a3.68,3.68,0,0,1,.07-1.46A2.86,2.86,0,0,0,44.3,63a1.61,1.61,0,0,0-2.41.17c-1,1-2,2.07-3,3.11l-.66.71a9.65,9.65,0,0,1,.51-1.93,7.61,7.61,0,0,0,.07-1.55c-.43,0-1-.21-1.26,0a5.42,5.42,0,0,0-1.71,2c-1.21,3.28-2.19,6.68-3.41,9.95a12.19,12.19,0,0,1-2.11,3.48c-.68.81-1.38.32-1.43-.86A6.31,6.31,0,0,1,29,76.41l0-.18a7.29,7.29,0,0,0-2.79,2.44c.08.33.13.53.16.73.42,3.06,1.92,4,4.25,2.72.37-.21.78-.57,1.14-.52,1.38.21,2-.78,2.44-2.1a50.08,50.08,0,0,1,6-11.54,6.59,6.59,0,0,1,1.06-1.23.64.64,0,0,1,.7-.07,1.22,1.22,0,0,1,.16.86A8.71,8.71,0,0,1,41.74,69c-1.06,3.16-2.14,6.31-3.17,9.48a6.65,6.65,0,0,0-.09,1.66,8,8,0,0,0,1.95-.05c.27-.07.46-.68.67-1.06,2.38-4.21,4.74-8.42,7.14-12.61a10.6,10.6,0,0,1,1.29-1.53l.31.29c-.14.39-.27.79-.42,1.18-.63,1.53-1.32,3-1.88,4.58a11.65,11.65,0,0,0-1,5.6c.23,1.69.94,2.48,2.31,2.7a4.26,4.26,0,0,0,3.7-1.29,1.18,1.18,0,0,1,1.23-.21c1.33,1,2.25,1.09,3.39-.15A40.58,40.58,0,0,0,60,73.81c.33-.46.6-1,.9-1.49a5.33,5.33,0,0,1,.32,1.82c.16,2.33,1.84,3.55,3.59,2.59.38-.21.71-.52,1.09-.72a2.18,2.18,0,0,1,1.15-.41c.86.13,1.27-.36,1.72-1.18,2.14-3.91,4.32-7.77,6.52-11.63a17.14,17.14,0,0,1,1.41-1.87l.24.18a7.76,7.76,0,0,0-.41,2.05,7.88,7.88,0,0,0,.68,2c.52-.32,1.27-.48,1.52-1a25.53,25.53,0,0,0,1.65-4.54A3.26,3.26,0,0,0,80.17,57.24Z"/><path d="M11.73,78.28c-1.66,2-3.46,3.73-5.83,4.28-1.63.38-2.7-.5-2.85-2.51a14.12,14.12,0,0,1,.19-3.84,29.48,29.48,0,0,1,11.18-18,8.29,8.29,0,0,1,2.07-1.1,1.09,1.09,0,0,1,1,.18c.14.13.1.81,0,1.13a15.75,15.75,0,0,1-1.54,3,23.54,23.54,0,0,1-3,3.28c-.36.33-1.24.13-1,1,.15.67.72,1.62,1.18,1.68a3.2,3.2,0,0,0,2.4-.64,17.21,17.21,0,0,0,5.09-7.61c.47-1.35.86-2.75,0-4.07A3,3,0,0,0,17,53.62a16.28,16.28,0,0,0-4.35,1.85C7.76,58.68,4.3,63.65,1.84,69.7A21.3,21.3,0,0,0,.17,80.81c.46,3.31,3.29,5.69,6,5,4.53-1.12,7.83-4.38,10.27-9A6.34,6.34,0,0,0,16.62,72C14.9,74.25,13.37,76.34,11.73,78.28Z"/><path d="M89.24,49a6.78,6.78,0,0,1,1.66-.24,3.13,3.13,0,0,1,1.56.56c.91.75.78,1.68-.27,2.08s-2.43.69-3.61,1.17a2.42,2.42,0,0,0-1.33,1.24c-1.46,4.31-2.83,8.65-4.2,13a6.5,6.5,0,0,0-.28,2c0,.55.17,1.43.43,1.55a1.6,1.6,0,0,0,1.45-.36A15,15,0,0,0,86.47,68c.58-.71,1.12-1.47,1.68-2.2a2.47,2.47,0,0,1,.32,3.2A37.67,37.67,0,0,1,85.16,73a2.76,2.76,0,0,1-3.63.42,3.58,3.58,0,0,1-1.46-3.74,38.39,38.39,0,0,1,1-5.77C82,60.89,83,58,84,55c.11-.32.18-.66.35-1.32-.86.22-1.5.41-2.14.55a5.09,5.09,0,0,1-1.23.17c-.79,0-1.13-.44-.74-1.43.5-1.28,1.24-2.38,2.42-2.44,2.51-.12,4.12-1.54,5-4.37a1.71,1.71,0,0,1,1.8-1.35c.74,0,1.06.42.75,1.33Z"/><path d="M102.12,34.22c1.08-.06,1.28.26.94,1.37L91.52,73.31c-.24.78-.39,1.6-.68,2.34A2.55,2.55,0,0,1,90,76.89a4.76,4.76,0,0,1-1.59.33,5.77,5.77,0,0,1-.09-1.7c1.09-4.08,2.16-8.17,3.39-12.18,2.69-8.77,5.47-17.5,8.22-26.24.16-.52.38-1,.56-1.52C100.82,34.62,101.35,34.08,102.12,34.22Z"/><path d="M108.08,67.51a25.37,25.37,0,0,1-1.8-5l-.35,0a11.15,11.15,0,0,0-5.29.67c.24,1.05.51,2.11.82,3.16a6.18,6.18,0,0,1,3.33-.48,3.51,3.51,0,0,1-3,1.47,23.75,23.75,0,0,0,1.37,3.31A9.73,9.73,0,0,0,108.08,67.51Z"/><path d="M31.12,68.3A13.24,13.24,0,0,0,31.27,66l-2,.32c-.28,0-.56.13-.84.18a17.29,17.29,0,0,1,2.23,3.59C30.82,69.5,31,68.9,31.12,68.3Z"/></g><g id="Logo"><path d="M97.5,111.8a7.76,7.76,0,0,1-1-6.71c-2.58-.1-5.18-.06-7.78.05a27.25,27.25,0,0,0,.85,9.18c1.24,4.5,4.57,7.5,8.2,10,.66.46,1.07.22,1.26-.66a21.27,21.27,0,0,1,1-3c.71-1.87,1.27-3.69,1.84-5.6a30.74,30.74,0,0,0,1.67-7.26q0-1,.06-1.91a46.92,46.92,0,0,0-5.53-.68A40.29,40.29,0,0,1,97.5,111.8Z"/><path d="M96.51,105.09a19.35,19.35,0,0,1,1.26-3.29,22.52,22.52,0,0,1,.29,3.38,46.92,46.92,0,0,1,5.53.68c.11-4.45,0-8.91-.18-13.37a22.73,22.73,0,0,0-1-5.35,3.22,3.22,0,0,0-2.47-2.36,8.28,8.28,0,0,1-4.44-2.93c-.28-.32-.25-.63-.74-1.19a18.63,18.63,0,0,1-.75,2.7c-1.16,4.12-2.41,8.21-3.55,12.34a48,48,0,0,0-1.75,9.45"/><path d="M76.56,104.63c-.14.65-.27,1.3-.35,2a4.21,4.21,0,0,1-.42-2.11,26.11,26.11,0,0,1-6-1.65c0,.06,0,.13,0,.19a56,56,0,0,1,.23,6.16A25.6,25.6,0,0,0,71,117.94c.41,1.5.44,1.52,1.93.76-.28,1.14-.22,2.17-.53,3.45a6.24,6.24,0,0,0,1-.43,23.52,23.52,0,0,0,9.48-15.93c0-.3.09-.61.13-.91A37.48,37.48,0,0,1,76.56,104.63Z"/><path d="M76.93,99.7a12,12,0,0,1-.37,4.93,37.48,37.48,0,0,0,6.45.26c.73-5,1-10.14,1.43-15.22.26-2.93.74-5.88.93-8.81a7.85,7.85,0,0,0-.06-1c-2.71.84-5.62,1.58-8.16,2.47a3.1,3.1,0,0,0-1.4,1.48c-2.92,5.59-4.45,11.67-5.9,17.77a5.1,5.1,0,0,0-.1,1.28,26.11,26.11,0,0,0,6,1.65"/><path class="cls-2" d="M88.53,82.71c-.35.31-.93.57-1,.94-.57,3.2-1.15,6.41-1.53,9.64Q84.73,104,83.68,114.73a18.14,18.14,0,0,0,.42,3.61,3.85,3.85,0,0,0,2.29-3.21c.16-1.69.2-3.39.34-5.08.29-3.61.48-7.23.95-10.81.66-5.07,0-10.27,1.56-15.25C89.33,83.68,88.78,83.15,88.53,82.71Z"/></g></svg>